<?xml version="1.0" encoding="UTF-8" standalone="no"?>
<!-- Created with Inkscape (http://www.inkscape.org/) -->

<svg
   width="65.492126mm"
   height="28.113529mm"
   viewBox="0 0 65.492126 28.113529"
   version="1.1"
   id="svg5"
   sodipodi:docname="drawing.svg"
   inkscape:version="1.1.1 (3bf5ae0d25, 2021-09-20)"
   xmlns:inkscape="http://www.inkscape.org/namespaces/inkscape"
   xmlns:sodipodi="http://sodipodi.sourceforge.net/DTD/sodipodi-0.dtd"
   xmlns="http://www.w3.org/2000/svg"
   xmlns:svg="http://www.w3.org/2000/svg">
  <sodipodi:namedview
     id="namedview7"
     pagecolor="#ffffff"
     bordercolor="#666666"
     borderopacity="1.0"
     inkscape:pageshadow="2"
     inkscape:pageopacity="0.0"
     inkscape:pagecheckerboard="0"
     inkscape:document-units="mm"
     showgrid="false"
     inkscape:zoom="2.950505"
     inkscape:cx="138.11195"
     inkscape:cy="67.785005"
     inkscape:window-width="1920"
     inkscape:window-height="1015"
     inkscape:window-x="0"
     inkscape:window-y="0"
     inkscape:window-maximized="1"
     inkscape:current-layer="layer2" />
  <defs
     id="defs2">
    <rect
       x="228.32954"
       y="135.4068"
       width="132.7243"
       height="167.07974"
       id="rect30665" />
  </defs>
  <g
     inkscape:groupmode="layer"
     id="layer2"
     inkscape:label="Layer"
     style="display:inline;opacity:1"
     transform="translate(-39.674064,-11.157458)">
    <path
       id="rect62292"
       style="fill:#ff0000;stroke-width:0.999999"
       d="M 149.94922,42.169922 V 148.42578 h 247.5293 V 42.169922 Z m 83.53906,36.960937 h 3.61328 v 18.144532 l 1.9336,-2.324219 6.58203,-6.953125 h 4.39453 l -8.22266,8.828125 9.17969,12.304688 h -4.23828 l -7.36328,-9.785157 -2.26563,2.363277 v 7.42188 h -3.61328 z m 126.79688,0 h 3.61328 v 30.000001 h -3.61328 z m 9.70703,0 h 3.61328 v 30.000001 h -3.61328 z m -17.57813,1.171875 c 0.70313,0 1.23698,0.201825 1.60156,0.605469 0.36459,0.403645 0.54688,0.898439 0.54688,1.484375 0,0.585936 -0.18229,1.07422 -0.54688,1.464844 -0.36458,0.390624 -0.89843,0.585937 -1.60156,0.585937 -0.70312,0 -1.23698,-0.195313 -1.60156,-0.585937 -0.35156,-0.390624 -0.52734,-0.878908 -0.52734,-1.464844 0,-0.585936 0.17578,-1.08073 0.52734,-1.484375 0.36458,-0.403644 0.89844,-0.605469 1.60156,-0.605469 z m -161.09375,0.390625 h 3.76953 v 25.371091 h 13.47657 v 3.06641 h -17.2461 z m 102.1875,0 h 3.28125 l 10.87891,28.437501 h -3.84766 l -2.71484,-7.42188 h -11.91406 l -2.67579,7.42188 h -3.86718 z m 18.37891,2.1875 H 315.5 v 5.117188 h 3.94531 v 2.792969 H 315.5 v 13.105464 c 0,0.84636 0.17578,1.48438 0.52734,1.91407 0.35157,0.41666 0.95053,0.625 1.79688,0.625 0.41666,0 0.98958,-0.0781 1.71875,-0.23438 v 2.92969 c -0.95052,0.26042 -1.875,0.39062 -2.77344,0.39062 -1.61458,0 -2.83203,-0.48828 -3.65234,-1.46484 -0.82031,-0.97656 -1.23047,-2.36329 -1.23047,-4.16016 V 90.791016 h -3.84766 v -2.792969 h 3.84766 z m 13.0664,0 h 3.61329 v 5.117188 h 3.94531 v 2.792969 h -3.94531 v 13.105464 c 0,0.84636 0.17578,1.48438 0.52734,1.91407 0.35156,0.41666 0.95052,0.625 1.79687,0.625 0.41667,0 0.98959,-0.0781 1.71876,-0.23438 v 2.92969 c -0.95052,0.26042 -1.87501,0.39062 -2.77344,0.39062 -1.61458,0 -2.83204,-0.48828 -3.65235,-1.46484 -0.82031,-0.97656 -1.23046,-2.36329 -1.23047,-4.16016 V 90.791016 h -3.84765 v -2.792969 h 3.84765 z m -29.80468,2.441407 -4.82422,13.300781 h 9.66797 z m -33.08594,2.285156 c 2.74739,0 4.88282,0.904954 6.40625,2.714844 1.52343,1.80989 2.28516,4.401052 2.28516,7.773437 v 1.503906 H 256.4375 c 0.0521,2.083331 0.65756,3.769531 1.81641,5.058591 1.17187,1.27604 2.65625,1.91407 4.45312,1.91407 1.27604,0 2.35677,-0.26042 3.24219,-0.78125 0.88541,-0.52084 1.66016,-1.21094 2.32422,-2.07032 l 2.20703,1.71875 c -1.77083,2.72135 -4.4271,4.08203 -7.96875,4.08203 -2.86458,0 -5.19532,-0.9375 -6.99219,-2.8125 -1.79687,-1.88801 -2.69531,-4.40756 -2.69531,-7.558589 v -0.664063 c 0,-2.096347 0.39714,-3.964849 1.1914,-5.605469 0.80729,-1.65364 1.92709,-2.942711 3.35938,-3.867187 1.44531,-0.937497 3.00782,-1.40625 4.6875,-1.40625 z m 83.28125,0 c 0.70312,0 1.23698,0.09115 1.60156,0.273437 v 3.359375 c -0.54687,-0.09114 -1.13932,-0.136718 -1.77734,-0.136718 -2.36979,0 -3.97787,1.009121 -4.82422,3.027343 v 15.000001 h -3.61328 V 87.998047 h 3.51562 l 0.0586,2.441406 c 1.18489,-1.888015 2.86459,-2.832031 5.03906,-2.832031 z m -134.00391,0.390625 h 3.61328 v 13.652343 c 0,3.20312 1.3021,4.80469 3.90626,4.80469 2.7604,0 4.59635,-1.02865 5.50781,-3.08594 V 87.998047 h 3.61328 v 21.132813 h -3.4375 l -0.0781,-2.08984 c -1.40624,1.65364 -3.47006,2.48046 -6.1914,2.48046 -2.2526,0 -3.97136,-0.65104 -5.15625,-1.95312 -1.17187,-1.3151 -1.76433,-3.25522 -1.77735,-5.82031 z m 139.23828,0 h 3.61329 v 21.132813 h -3.61329 z m -88.51562,2.578125 c -1.45833,0 -2.68229,0.533857 -3.67188,1.601562 -0.98958,1.054685 -1.60156,2.539069 -1.83593,4.453125 h 10.58593 v -0.273437 c -0.10416,-1.835932 -0.59896,-3.255212 -1.48437,-4.257813 -0.88541,-1.015621 -2.08334,-1.523437 -3.59375,-1.523437 z"
       transform="scale(0.26458333)" />
  </g>
</svg>
